<svg width="20" height="20" viewBox="0 0 20 20" fill="none" xmlns="http://www.w3.org/2000/svg">
<path fill-rule="evenodd" clip-rule="evenodd" d="M5.58333 3.43971C3.98872 3.81432 2.76812 5.13361 2.53836 6.78075C2.5 7.05573 2.5 7.38357 2.5 8.03926C2.5 8.08024 2.5 8.10073 2.5024 8.11791C2.51783 8.22856 2.60481 8.31554 2.71546 8.33098C2.73265 8.33337 2.75314 8.33337 2.79412 8.33337H17.2059C17.2469 8.33337 17.2674 8.33337 17.2845 8.33098C17.3952 8.31554 17.4822 8.22856 17.4976 8.11791C17.5 8.10073 17.5 8.08024 17.5 8.03926C17.5 7.38357 17.5 7.05573 17.4616 6.78075C17.2319 5.13361 16.0113 3.81432 14.4167 3.43971L14.4167 5.41671C14.4167 6.24513 13.7451 6.91671 12.9167 6.91671C12.0882 6.91671 11.4167 6.24514 11.4167 5.41671L11.4167 3.33337H8.58333L8.58334 5.41671C8.58334 6.24513 7.91177 6.91671 7.08334 6.91671C6.25491 6.91671 5.58334 6.24514 5.58334 5.41671L5.58333 3.43971Z" fill="#1A5967"/>
<path d="M2.5 9.6078C2.5 9.42874 2.5 9.33921 2.54375 9.27534C2.56121 9.24986 2.58323 9.22783 2.60872 9.21038C2.67258 9.16663 2.76211 9.16663 2.94118 9.16663H17.0588C17.2379 9.16663 17.3274 9.16663 17.3913 9.21038C17.4168 9.22783 17.4388 9.24986 17.4562 9.27534C17.5 9.33921 17.5 9.42874 17.5 9.6078C17.5 12.4728 17.5 13.9053 16.8 14.9272C16.5207 15.3349 16.1683 15.6873 15.7605 15.9666C14.7387 16.6666 13.3062 16.6666 10.4412 16.6666H9.55882C6.69384 16.6666 5.26134 16.6666 4.23945 15.9666C3.83174 15.6873 3.4793 15.3349 3.20001 14.9272C2.5 13.9053 2.5 12.4728 2.5 9.6078Z" fill="#1A5967"/>
<path d="M7.08325 2.08337L7.08325 5.41671" stroke="#1A5967" stroke-linecap="round"/>
<path d="M12.9167 2.08337L12.9167 5.41671" stroke="#1A5967" stroke-linecap="round"/>
</svg>
