<svg width="21" height="19" viewBox="0 0 21 19" fill="none" xmlns="http://www.w3.org/2000/svg">
<path d="M16.7997 7.30008V10.6999C16.7997 12.1082 15.6581 13.2498 14.2498 13.2498H10.7042C10.2534 13.2498 9.82098 13.4289 9.50218 13.7477L8.05122 15.1986C7.51578 15.7341 6.60026 15.3548 6.60026 14.5976V13.2498H5.7503C4.34205 13.2498 3.20044 12.1082 3.20044 10.6999V3.90027C3.20044 2.49202 4.34205 1.3504 5.7503 1.3504H10.85" stroke="#1A5967" stroke-width="1.27493" stroke-linecap="round" stroke-linejoin="round"/>
<path d="M12.5163 4.9605C12.278 4.47947 11.521 4.47947 11.2827 4.9605L10.8092 5.91623L9.74959 6.34326C9.21628 6.55818 9.21628 7.241 9.74959 7.45593L10.8092 7.88296L11.2827 8.83869C11.521 9.31971 12.278 9.31971 12.5163 8.83869L12.9897 7.88296L14.0494 7.45593C14.5827 7.241 14.5827 6.55818 14.0494 6.34326L12.9897 5.91623L12.5163 4.9605Z" fill="#1A5967"/>
<path d="M16.5605 2.54038C16.4016 2.2197 15.8969 2.2197 15.738 2.54038L15.4224 3.17753L14.716 3.46222C14.3605 3.6055 14.3605 4.06071 14.716 4.204L15.4224 4.48868L15.738 5.12584C15.8969 5.44652 16.4016 5.44652 16.5605 5.12584L16.8761 4.48868L17.5825 4.204C17.938 4.06071 17.938 3.6055 17.5825 3.46222L16.8761 3.17753L16.5605 2.54038Z" fill="#1A5967"/>
</svg>
