<svg width="16" height="16" viewBox="0 0 16 16" fill="none" xmlns="http://www.w3.org/2000/svg">
<path fill-rule="evenodd" clip-rule="evenodd" d="M4.75226 0.49939H11.2548C13.7973 0.49939 15.4998 2.28439 15.4998 4.93939V11.0676C15.4998 13.7151 13.7973 15.4994 11.2548 15.4994H4.75226C2.20976 15.4994 0.499756 13.7151 0.499756 11.0676V4.93939C0.499756 2.28439 2.20976 0.49939 4.75226 0.49939ZM7.99232 5.79515C7.63982 5.79515 7.34732 5.5019 7.34732 5.14265C7.34732 4.77515 7.63982 4.48265 8.00732 4.48265C8.36732 4.48265 8.65982 4.77515 8.65982 5.14265C8.65982 5.5019 8.36732 5.79515 7.99232 5.79515ZM8.65219 10.8351C8.65219 11.1951 8.35969 11.4876 7.99219 11.4876C7.63219 11.4876 7.33969 11.1951 7.33969 10.8351V7.52013C7.33969 7.15938 7.63219 6.86013 7.99219 6.86013C8.35969 6.86013 8.65219 7.15938 8.65219 7.52013V10.8351Z" fill="#1A5967"/>
</svg>
